<svg width="129" height="129" viewBox="0 0 129 129" fill="none" xmlns="http://www.w3.org/2000/svg">
<g clip-path="url(#clip0_621_11)">
<rect width="129" height="129" rx="64.5" fill="white" fill-opacity="0.6"/>
<rect width="129" height="129" rx="64.5" fill="url(#paint0_linear_621_11)"/>
<g filter="url(#filter0_d_621_11)">
<path fill-rule="evenodd" clip-rule="evenodd" d="M82.6554 63.3342C69.5812 83.4127 44.5147 71.8277 42.5923 52.9995C42.8258 64.9535 52.5543 74.5794 64.5455 74.6419C72.7409 74.5992 79.8787 70.0892 83.6518 63.4218L82.6554 63.3342V63.3342Z" fill="#494C41"/>
<path fill-rule="evenodd" clip-rule="evenodd" d="M97.8211 48.8769C97.8329 48.4808 97.8399 48.087 97.8365 47.6984C97.6816 30.2648 82.9314 16.1307 64.5454 16.1307C46.1595 16.1307 31.0969 30.265 31.2544 47.6984C31.2565 47.9283 31.2632 48.1605 31.2702 48.3931C31.7903 31.5112 46.58 18.0154 64.5454 18.0154C82.6824 18.0154 97.2801 31.7695 97.8211 48.8769V48.8769Z" fill="#494C41"/>
<path fill-rule="evenodd" clip-rule="evenodd" d="M64.5453 108.409C70.8527 108.409 75.9656 109.418 75.9656 110.662C75.9656 111.906 70.8527 112.915 64.5453 112.915C58.2381 112.915 53.125 111.906 53.125 110.662C53.125 109.418 58.2381 108.409 64.5453 108.409V108.409Z" fill="#494C41"/>
<path fill-rule="evenodd" clip-rule="evenodd" d="M64.5456 20.9932C47.1704 21.0565 32.9564 35.1652 33.1054 52.5594C33.1355 56.0733 33.7247 59.9069 34.7443 63.8691C38.8664 79.8897 51.787 95.5284 59.9049 105.348C61.4082 107.167 62.8976 108.062 64.5456 108.052C66.1934 108.062 67.6829 107.167 69.1861 105.348C77.2044 95.649 89.9071 80.2727 94.19 64.4589L83.654 63.4203L83.6561 63.4141C79.8843 70.0854 72.744 74.5988 64.5456 74.6415C52.4077 74.5783 42.5869 64.7164 42.5869 52.5594C42.5869 40.4025 52.4077 30.5409 64.5456 30.4776C76.6833 30.5409 86.5043 40.4025 86.5043 52.5594C86.5043 55.1964 86.0414 57.7249 85.194 60.0693L95.1878 60.1181C95.6857 57.4906 95.9652 54.9508 95.9857 52.5594C96.1346 35.1652 81.9206 21.0565 64.5456 20.9932V20.9932ZM95.1579 59.0178C95.2513 58.5826 95.097 60.3188 95.1789 59.8882L95.1579 59.0178Z" fill="#BD7858"/>
<path fill-rule="evenodd" clip-rule="evenodd" d="M67.1724 43.613C74.5014 49.1893 77.1606 39.6413 70.5235 34.7493C67.9259 32.8346 63.4395 32.6603 63.3074 36.5279C63.2356 38.6161 64.8526 41.8477 67.1724 43.613ZM58.6983 58.5828C56.0809 57.6233 52.3113 57.964 50.7175 59.0557C47.4908 61.2661 49.8947 65.0178 53.3254 66.291C60.8776 69.0937 67.3508 61.7546 58.6983 58.5828ZM77.1775 55.8956L95.7302 56.5686C95.6008 57.7993 95.3976 58.9621 95.1874 60.1182L78.7795 60.0384C79.1414 60.8485 81.5601 64.6929 82.0812 65.5948C81.3691 66.5484 80.5997 67.4966 79.6547 68.3115C77.6574 65.8061 76.3783 63.0186 74.4306 60.7486C72.6135 61.1519 72.0672 60.9031 70.315 59.2073C67.8328 60.4318 67.6751 60.857 63.7268 59.0744C64.1267 60.9346 65.0021 63.9789 62.3118 66.4408C58.0599 70.3305 51.1742 68.7084 48.5878 65.0344C46.7624 62.442 47.689 60.6271 47.7009 59.7317C47.7203 58.3279 47.8338 59.5057 46.9407 58.345C49.2917 55.0097 68.0702 56.7389 73.2235 56.7848C70.1463 51.4832 59.1257 37.8379 60.6317 33.7923C60.7171 33.7876 60.8251 33.8179 60.8863 33.8218L61.8152 33.8219C62.6201 33.6244 62.7361 32.9883 63.9039 32.282C69.0983 29.143 77.4254 36.215 75.5659 42.9105C75.2006 44.2266 74.3582 45.4947 73.2964 46.2525C72.7778 46.6225 72.2971 46.7893 71.8062 46.9622L70.0958 47.6423C73.9839 49.8931 73.318 50.9327 73.7225 53.1881C76.4809 53.778 76.6442 53.9086 77.1775 55.8956Z" fill="#494C41"/>
<path fill-rule="evenodd" clip-rule="evenodd" d="M61.264 47.7198C62.138 47.7536 62.8187 48.4893 62.785 49.3633C62.7513 50.2374 62.0158 50.9183 61.1418 50.8845C60.2681 50.8508 59.5874 50.1152 59.6211 49.2411C59.6549 48.3671 60.3902 47.686 61.264 47.7198ZM57.7134 51.1365C57.8372 51.6103 57.5536 52.0949 57.0799 52.2188C56.6063 52.3428 56.1217 52.0591 55.9979 51.5852C55.9081 51.2449 55.8447 50.9073 55.8081 50.5764C55.7703 50.2334 55.7578 49.8911 55.7707 49.5541C55.8225 48.2149 56.2626 46.9469 57.0003 45.8817C57.7379 44.8167 58.7699 43.9593 60.006 43.4398C60.4591 43.2499 60.9806 43.4632 61.1705 43.9164C61.3604 44.3696 61.1471 44.8913 60.694 45.0813C59.7701 45.4696 59.0019 46.1053 58.4575 46.8917C57.9133 47.6775 57.5884 48.6202 57.5496 49.6228C57.5396 49.8823 57.5486 50.1378 57.5759 50.387C57.6046 50.6481 57.6507 50.8994 57.7134 51.1365V51.1365ZM54.2469 52.2629C54.3708 52.7367 54.0871 53.2213 53.6135 53.3452C53.1398 53.4691 52.6553 53.1855 52.5314 52.7116C52.3909 52.1792 52.2912 51.6465 52.2331 51.1185C52.1738 50.5787 52.154 50.0383 52.1746 49.5025C52.2564 47.3849 52.9506 45.3825 54.1144 43.7017C55.2777 42.0217 56.9082 40.6678 58.8621 39.8467C59.3152 39.6568 59.8368 39.8701 60.0267 40.3234C60.2166 40.7765 60.0033 41.2984 59.5502 41.4883C57.9081 42.1782 56.542 43.3102 55.5715 44.7118C54.6013 46.113 54.0223 47.79 53.9535 49.5712C53.9359 50.0293 53.9519 50.4832 54.0009 50.9291C54.0512 51.3874 54.1335 51.8334 54.2469 52.2629V52.2629ZM50.8384 53.4081C50.9797 53.8786 50.7128 54.3749 50.2424 54.5162C49.7719 54.6576 49.2757 54.3905 49.1344 53.92C48.9099 53.1749 48.7467 52.4073 48.6471 51.6265C48.5472 50.8443 48.5116 50.0606 48.5415 49.2843C48.651 46.4475 49.6044 43.7784 51.1947 41.5655C52.7832 39.355 55.0087 37.6014 57.6636 36.5932C58.1218 36.4188 58.635 36.6491 58.8094 37.1074C58.9837 37.5657 58.7535 38.0791 58.2953 38.2535C55.9729 39.1355 54.0262 40.6693 52.6369 42.6028C51.2487 44.5344 50.4162 46.8684 50.3204 49.353C50.2937 50.0456 50.3236 50.7312 50.4094 51.4023C50.4953 52.0744 50.6389 52.7456 50.8384 53.4081V53.4081Z" fill="#494C41"/>
</g>
</g>
<defs>
<filter id="filter0_d_621_11" x="1.25317" y="16.1307" width="126.584" height="156.784" filterUnits="userSpaceOnUse" color-interpolation-filters="sRGB">
<feFlood flood-opacity="0" result="BackgroundImageFix"/>
<feColorMatrix in="SourceAlpha" type="matrix" values="0 0 0 0 0 0 0 0 0 0 0 0 0 0 0 0 0 0 127 0" result="hardAlpha"/>
<feOffset dy="30"/>
<feGaussianBlur stdDeviation="15"/>
<feComposite in2="hardAlpha" operator="out"/>
<feColorMatrix type="matrix" values="0 0 0 0 0 0 0 0 0 0 0 0 0 0 0 0 0 0 0.25 0"/>
<feBlend mode="normal" in2="BackgroundImageFix" result="effect1_dropShadow_621_11"/>
<feBlend mode="normal" in="SourceGraphic" in2="effect1_dropShadow_621_11" result="shape"/>
</filter>
<linearGradient id="paint0_linear_621_11" x1="64.5" y1="0" x2="64.5" y2="129" gradientUnits="userSpaceOnUse">
<stop stop-color="#E3E7FB"/>
<stop offset="0.135417" stop-color="#E1E3F7"/>
<stop offset="0.265625" stop-color="#DFE0F4"/>
<stop offset="0.380208" stop-color="#DDDEEF"/>
<stop offset="0.541667" stop-color="#D9DBE8"/>
<stop offset="0.677083" stop-color="#D6D8E5"/>
<stop offset="0.8125" stop-color="#D3D5E2"/>
<stop offset="0.90625" stop-color="#D2D4E2"/>
<stop offset="1" stop-color="#CFD0E3"/>
</linearGradient>
<clipPath id="clip0_621_11">
<rect width="129" height="129" rx="64.5" fill="white"/>
</clipPath>
</defs>
</svg>
